<svg width="89.28" height="32.153" viewBox="0 0 89.28 32.153" xmlns="http://www.w3.org/2000/svg"><g id="svgGroup" stroke-linecap="round" fill-rule="evenodd" font-size="9pt" stroke="#000000" stroke-width="0.25mm" fill="#000000" style="stroke:#000000;stroke-width:0.25mm;fill:#000000"><path d="M 20.467 28.1 L 21.217 27.85 Q 21.417 27.95 21.617 28.85 Q 21.817 29.75 21.817 30.275 Q 21.817 30.8 21.717 31 Q 18.567 32.15 15.367 32.15 Q 9.167 32.15 4.592 28.4 Q 0.017 24.65 0.017 17.9 Q 0.017 13.45 1.567 9.925 Q 3.117 6.4 5.717 4.3 Q 8.317 2.2 11.417 1.1 Q 14.517 0 17.617 0 Q 20.717 0 23.442 0.825 Q 26.167 1.65 28.542 3.275 Q 30.917 4.9 32.367 7.725 A 13.981 13.981 0 0 1 33.817 14.2 Q 33.817 19.35 31.542 22.65 Q 29.267 25.95 25.767 25.95 Q 21.617 25.95 20.967 21.5 Q 20.017 23.55 18.317 24.825 Q 16.617 26.1 14.367 26.1 Q 10.917 26.1 8.942 23.875 Q 6.967 21.65 6.967 17.9 Q 6.967 14.15 9.317 10.65 Q 10.467 8.9 12.642 7.8 Q 14.817 6.7 17.442 6.7 Q 20.067 6.7 22.417 7.45 Q 23.267 7.15 24.342 7.15 Q 25.417 7.15 26.267 7.65 Q 24.667 18.35 24.667 20.8 Q 24.667 22.65 26.417 22.65 Q 27.967 22.65 29.017 20.425 Q 30.067 18.2 30.067 14.55 Q 30.067 9.3 26.792 6.4 Q 23.517 3.5 17.642 3.5 Q 11.767 3.5 7.817 7.15 A 13.248 13.248 0 0 0 3.872 17.08 A 22.519 22.519 0 0 0 3.867 17.55 Q 3.867 22.45 7.267 25.675 Q 10.667 28.9 15.617 28.9 Q 17.917 28.9 18.892 28.6 Q 19.867 28.3 20.467 28.1 Z M 75.917 28.1 L 76.667 27.85 Q 76.867 27.95 77.067 28.85 Q 77.267 29.75 77.267 30.275 Q 77.267 30.8 77.167 31 Q 74.017 32.15 70.817 32.15 Q 64.617 32.15 60.042 28.4 Q 55.467 24.65 55.467 17.9 Q 55.467 13.45 57.017 9.925 Q 58.567 6.4 61.167 4.3 Q 63.767 2.2 66.867 1.1 Q 69.967 0 73.067 0 Q 76.167 0 78.892 0.825 Q 81.617 1.65 83.992 3.275 Q 86.367 4.9 87.817 7.725 A 13.981 13.981 0 0 1 89.267 14.2 Q 89.267 19.35 86.992 22.65 Q 84.717 25.95 81.217 25.95 Q 77.067 25.95 76.417 21.5 Q 75.467 23.55 73.767 24.825 Q 72.067 26.1 69.817 26.1 Q 66.367 26.1 64.392 23.875 Q 62.417 21.65 62.417 17.9 Q 62.417 14.15 64.767 10.65 Q 65.917 8.9 68.092 7.8 Q 70.267 6.7 72.892 6.7 Q 75.517 6.7 77.867 7.45 Q 78.717 7.15 79.792 7.15 Q 80.867 7.15 81.717 7.65 Q 80.117 18.35 80.117 20.8 Q 80.117 22.65 81.867 22.65 Q 83.417 22.65 84.467 20.425 Q 85.517 18.2 85.517 14.55 Q 85.517 9.3 82.242 6.4 Q 78.967 3.5 73.092 3.5 Q 67.217 3.5 63.267 7.15 A 13.248 13.248 0 0 0 59.322 17.08 A 22.519 22.519 0 0 0 59.317 17.55 Q 59.317 22.45 62.717 25.675 Q 66.117 28.9 71.067 28.9 Q 73.367 28.9 74.342 28.6 Q 75.317 28.3 75.917 28.1 Z M 20.017 17.1 L 20.917 10.45 Q 19.317 10.15 18.417 10.15 Q 15.417 10.15 13.542 12.225 Q 11.667 14.3 11.667 17.6 Q 11.667 19.9 12.717 21.025 Q 13.767 22.15 15.392 22.15 Q 17.017 22.15 18.267 20.875 Q 19.517 19.6 20.017 17.1 Z M 75.467 17.1 L 76.367 10.45 Q 74.767 10.15 73.867 10.15 Q 70.867 10.15 68.992 12.225 Q 67.117 14.3 67.117 17.6 Q 67.117 19.9 68.167 21.025 Q 69.217 22.15 70.842 22.15 Q 72.467 22.15 73.717 20.875 Q 74.967 19.6 75.467 17.1 Z M 41.242 22.35 Q 42.417 21.15 44.117 21.15 Q 45.817 21.15 47.017 22.35 Q 48.217 23.55 48.217 25.25 Q 48.217 26.95 47.017 28.125 Q 45.817 29.3 44.117 29.3 Q 42.417 29.3 41.242 28.125 Q 40.067 26.95 40.067 25.25 Q 40.067 23.55 41.242 22.35 Z"/></g></svg>