<?xml version="1.0" encoding="UTF-8" standalone="no"?>
<svg version="1.1" xmlns="http://www.w3.org/2000/svg" style="font-family: Arial; " width="800" height="450" viewBox="0 0 800 450"><title>Performance comparison of MySQL and SQL</title><defs><clipPath id="chart-clipPath-exact"><rect height="302" width="690"></rect></clipPath><clipPath id="chart-clipPath-buffer"><rect x="-10" y="-10" height="322" width="710"></rect></clipPath></defs><g class="scaler"><rect width="800" height="450" fill="rgb(255, 255, 255)" fill-opacity="1"></rect><g class="canvas" transform="translate(85,51)"><g class="grid"><g class="axis-grid y" transform="translate(0,0)"><line class="grid" x1="0" x2="690" y1="0" y2="0" style="stroke: #666666; stroke-opacity: 0.3; stroke-width: 1px; " transform="translate(0,302)"></line><line class="grid" x1="0" x2="690" y1="0" y2="0" style="stroke: #666666; stroke-opacity: 0.3; stroke-width: 1px; " transform="translate(0,247.45336478568663)"></line><line class="grid" x1="0" x2="690" y1="0" y2="0" style="stroke: #666666; stroke-opacity: 0.3; stroke-width: 1px; " transform="translate(0,194.5996644768279)"></line><line class="grid" x1="0" x2="690" y1="0" y2="0" style="stroke: #666666; stroke-opacity: 0.3; stroke-width: 1px; " transform="translate(0,144.83557652379108)"></line><line class="grid" x1="0" x2="690" y1="0" y2="0" style="stroke: #666666; stroke-opacity: 0.3; stroke-width: 1px; " transform="translate(0,102.61778826189556)"></line><line class="grid" x1="0" x2="690" y1="0" y2="0" style="stroke: #666666; stroke-opacity: 0.3; stroke-width: 1px; " transform="translate(0,63.16375242986476)"></line><line class="grid" x1="0" x2="690" y1="0" y2="0" style="stroke: #666666; stroke-opacity: 0.3; stroke-width: 1px; " transform="translate(0,9.356078383138936)"></line></g><g class="axis-grid x" transform="translate(0,302)"></g><g class="axis-grid y2" transform="translate(689.5,0)"></g><g class="axis-grid x2" transform="translate(0,1)"></g></g><rect class="trigger-layer" height="400" width="724" opacity="0"></rect><g class="chart"><g class="series s0"><g class="bar"><rect fill="rgb(242, 145, 17)" opacity="1" x="32.857142857142854" width="65.71428571428571" y="138.77319559869028" height="163.22680440130972" clip-path="url(#chart-clipPath-exact)"></rect></g><g class="bar"><rect fill="rgb(242, 145, 17)" opacity="1" x="197.14285714285714" width="65.71428571428571" y="229.27115304758217" height="72.72884695241783" clip-path="url(#chart-clipPath-exact)"></rect></g><g class="bar"><rect fill="rgb(242, 145, 17)" opacity="1" x="361.4285714285714" width="65.71428571428571" y="67.89388931065523" height="234.10611068934477" clip-path="url(#chart-clipPath-exact)"></rect></g><g class="bar"><rect fill="rgb(242, 145, 17)" opacity="1" x="525.7142857142857" width="65.71428571428571" y="180.42463162780763" height="121.57536837219237" clip-path="url(#chart-clipPath-exact)"></rect></g></g><g class="series s1"><g class="bar"><rect fill="rgb(88, 176, 226)" opacity="1" x="98.57142857142856" width="65.71428571428571" y="53.916321805485524" height="248.08367819451448" clip-path="url(#chart-clipPath-exact)"></rect></g><g class="bar"><rect fill="rgb(88, 176, 226)" opacity="1" x="262.85714285714283" width="65.71428571428571" y="239.0998818164432" height="62.9001181835568" clip-path="url(#chart-clipPath-exact)"></rect></g><g class="bar"><rect fill="rgb(88, 176, 226)" opacity="1" x="427.1428571428571" width="65.71428571428571" y="37.55464657110912" height="264.4453534288909" clip-path="url(#chart-clipPath-exact)"></rect></g><g class="bar"><rect fill="rgb(88, 176, 226)" opacity="1" x="591.4285714285713" width="65.71428571428571" y="165.205003490224" height="136.794996509776" clip-path="url(#chart-clipPath-exact)"></rect></g></g></g><g class="axes"><g class="axis-labels"><g class="left"><g class="label" transform="translate(-60,151)"><text style="text-anchor: middle; font-family: Arial; font-size: 16px; " fill="rgb(102, 102, 102)" dy="16" transform="rotate(270)">Requests per second</text></g></g></g><g class="axis left" transform="translate(0,0)"><g class="tick major" style="opacity: 1; display: block; " transform="translate(0,302)"><line x2="-6" y2="0"></line><text x="-9" y="0" dy="7" style="fill: #666666; fill-opacity: 1; font-family: Arial; font-size: 14px; text-anchor: end; " transform="rotate(0, -9, 0)translate(0,0)" data-org-x="-9" data-org-y="0">1</text></g><g class="tick major" style="opacity: 1; display: block; " transform="translate(0,247.45336478568663)"><line x2="-6" y2="0"></line><text x="-9" y="0" dy="7" style="fill: #666666; fill-opacity: 1; font-family: Arial; font-size: 14px; text-anchor: end; " transform="rotate(0, -9, 0)translate(0,0)" data-org-x="-9" data-org-y="0">8</text></g><g class="tick major" style="opacity: 1; display: block; " transform="translate(0,194.5996644768279)"><line x2="-6" y2="0"></line><text x="-9" y="0" dy="7" style="fill: #666666; fill-opacity: 1; font-family: Arial; font-size: 14px; text-anchor: end; " transform="rotate(0, -9, 0)translate(0,0)" data-org-x="-9" data-org-y="0">60</text></g><g class="tick major" style="opacity: 1; display: block; " transform="translate(0,144.83557652379108)"><line x2="-6" y2="0"></line><text x="-9" y="0" dy="7" style="fill: #666666; fill-opacity: 1; font-family: Arial; font-size: 14px; text-anchor: end; " transform="rotate(0, -9, 0)translate(0,0)" data-org-x="-9" data-org-y="0">400</text></g><g class="tick major" style="opacity: 1; display: block; " transform="translate(0,102.61778826189556)"><line x2="-6" y2="0"></line><text x="-9" y="0" dy="7" style="fill: #666666; fill-opacity: 1; font-family: Arial; font-size: 14px; text-anchor: end; " transform="rotate(0, -9, 0)translate(0,0)" data-org-x="-9" data-org-y="0">2K</text></g><g class="tick major" style="opacity: 1; display: block; " transform="translate(0,63.16375242986476)"><line x2="-6" y2="0"></line><text x="-9" y="0" dy="7" style="fill: #666666; fill-opacity: 1; font-family: Arial; font-size: 14px; text-anchor: end; " transform="rotate(0, -9, 0)translate(0,0)" data-org-x="-9" data-org-y="0">9K</text></g><g class="tick major" style="opacity: 1; display: block; " transform="translate(0,9.356078383138936)"><line x2="-6" y2="0"></line><text x="-9" y="0" dy="7" style="fill: #666666; fill-opacity: 1; font-family: Arial; font-size: 14px; text-anchor: end; " transform="rotate(0, -9, 0)translate(0,0)" data-org-x="-9" data-org-y="0">70K</text></g><path class="domain" d="M0,0H0V302H0" stroke-width="0" fill="none" stroke="rgb(188, 188, 188)" stroke-opacity="1"></path></g><g class="axis bottom" transform="translate(0,302)"><g class="tick major" style="opacity: 1; display: block; " transform="translate(98.57142857142856,0)"><line y2="6" x2="0"></line><text y="9" x="0" dy="7" style="fill: #666666; fill-opacity: 1; font-family: Arial; font-size: 14px; text-anchor: middle; " transform="rotate(0, 0, 9)translate(0,0)" data-org-x="0" data-org-y="9">Single write</text></g><g class="tick major" style="opacity: 1; display: block; " transform="translate(262.85714285714283,0)"><line y2="6" x2="0"></line><text y="9" x="0" dy="7" style="fill: #666666; fill-opacity: 1; font-family: Arial; font-size: 14px; text-anchor: middle; " transform="rotate(0, 0, 9)translate(0,0)" data-org-x="0" data-org-y="9">Bulk write</text></g><g class="tick major" style="opacity: 1; display: block; " transform="translate(427.1428571428571,0)"><line y2="6" x2="0"></line><text y="9" x="0" dy="7" style="fill: #666666; fill-opacity: 1; font-family: Arial; font-size: 14px; text-anchor: middle; " transform="rotate(0, 0, 9)translate(0,0)" data-org-x="0" data-org-y="9">Single read</text></g><g class="tick major" style="opacity: 1; display: block; " transform="translate(591.4285714285713,0)"><line y2="6" x2="0"></line><text y="9" x="0" dy="7" style="fill: #666666; fill-opacity: 1; font-family: Arial; font-size: 14px; text-anchor: middle; " transform="rotate(0, 0, 9)translate(0,0)" data-org-x="0" data-org-y="9">Bulk read</text></g><path class="domain" d="M0,0V0H690V0" stroke-width="0" fill="none" stroke="rgb(188, 188, 188)" stroke-opacity="1"></path><path class="filler" d="M0,0V0H0V0" stroke-width="0" fill="none" stroke="rgb(188, 188, 188)" stroke-opacity="1"></path></g></g></g><g class="label" transform="translate(179.5,400)"><text style="text-anchor: start; font-family: Arial; font-size: 22px; " fill="rgb(102, 102, 102)" dy="22" transform="rotate(0)">Performance comparison of MySQL and SQL</text></g><g class="legend" transform="translate(326.6013488769531,25)"><g class="row" transform="translate(0,0)"><text class="key" style="font-size: 14px; fill: #666666; fill-opacity: 1; " dx="28" dy="14">MySQL</text><path class="shape" d="M0,7.898654169668588A7.898654169668588,7.898654169668588 0 1,1 0,-7.898654169668588A7.898654169668588,7.898654169668588 0 1,1 0,7.898654169668588Z" style="fill: #f29111; fill-opacity: 1; " transform="translate(14,9.24)"></path></g><g class="row" transform="translate(81.89865112304688,0)"><text class="key" style="font-size: 14px; fill: #666666; fill-opacity: 1; " dx="28" dy="14">SQLite</text><path class="shape" d="M0,7.898654169668588A7.898654169668588,7.898654169668588 0 1,1 0,-7.898654169668588A7.898654169668588,7.898654169668588 0 1,1 0,7.898654169668588Z" style="fill: #58b0e2; fill-opacity: 1; " transform="translate(14,9.24)"></path></g></g></g></svg>